<?xml version="1.0" encoding="utf-8"?>
<!-- Generator: Adobe Illustrator 25.3.0, SVG Export Plug-In . SVG Version: 6.00 Build 0)  -->
<svg version="1.1" id="Capa_1" xmlns="http://www.w3.org/2000/svg" xmlns:xlink="http://www.w3.org/1999/xlink" x="0px" y="0px"
	 viewBox="0 0 24 24" style="enable-background:new 0 0 24 24;" xml:space="preserve">
<style type="text/css">
	.st0{fill:none;stroke:#EA1179;stroke-width:2;stroke-linecap:round;stroke-linejoin:round;}
</style>
<g>
	<path class="st0" d="M2,12c1.1,0,2-0.9,2-2V6c0-1.1,0.9-2,2-2h12c1.1,0,2,0.9,2,2v4c0,1.1,0.9,2,2,2"/>
	<path class="st0" d="M2,12c1.1,0,2,0.9,2,2v4c0,1.1,0.9,2,2,2h12c1.1,0,2-0.9,2-2v-4c0-1.1,0.9-2,2-2"/>
	<path class="st0" d="M9,16V8h3.5c1.1,0,2,0.9,2,2s-0.9,2-2,2H9h4c1.1,0,2,0.9,2,2s-0.9,2-2,2H9z"/>
</g>
</svg>
