<?xml version="1.0" encoding="utf-8"?>
<!-- Generator: Adobe Illustrator 25.3.0, SVG Export Plug-In . SVG Version: 6.00 Build 0)  -->
<svg version="1.1" id="OBJECTS" xmlns="http://www.w3.org/2000/svg" xmlns:xlink="http://www.w3.org/1999/xlink" x="0px" y="0px"
	 viewBox="0 0 241.06 241.06" style="enable-background:new 0 0 241.06 241.06;" xml:space="preserve">
<style type="text/css">
	.st0{display:none;fill:#272829;}
	.st1{fill:#4F4557;}
	.st2{fill:#393646;}
	.st3{fill:#E8E6FB;}
	.st4{fill:#78E65A;}
	.st5{fill:#FECF6C;}
	.st6{fill:#F24B58;}
	.st7{fill:#E74646;}
	.st8{fill:#5094FE;}
	.st9{fill:#BE5A45;}
	.st10{fill:#CBCEF1;}
	.st11{fill:#9A96CC;}
	.st12{fill:#5194FE;}
	.st13{fill:#FFFFFF;}
</style>
<rect x="-25.55" y="-25.55" class="st0" width="292.16" height="292.16"/>
<g>
	<g>
		<path class="st1" d="M230.17,59.03c0.02,0.94,0.07,1.89,0.07,2.83c0,48.75,0,97.51,0,146.26c0,11.17-7.19,20.33-17.68,22.51
			c-0.73,0.15-1.51,0.12-2.26,0.12c-59.84,0-119.68,0.01-179.53,0c-8.97,0-18.37-8.78-19.53-17.96c-0.35-2.75-0.4-5.47-0.4-8.22
			c-0.01-47.41,0-94.83,0-142.24c0-1.1,0.04-2.2,0.07-3.31c1.29-0.95,2.78-0.63,4.19-0.63c28.97-0.02,57.93-0.01,86.9-0.01
			c41.33,0,82.65,0,123.98,0.01C227.39,58.41,228.87,58.09,230.17,59.03z"/>
		<path class="st2" d="M230.17,59.03c-0.68,0.01-1.36,0.04-2.05,0.04c-71.73,0-143.45,0-215.18,0c-0.68,0-1.36-0.03-2.05-0.04
			c-0.01-9.05-0.17-18.11,0.01-27.16c0.23-11.65,9.24-20.97,20.46-21.49c0.83-0.04,1.67-0.05,2.5-0.05
			c57.78,0,115.56,0.03,173.34-0.03c9.56-0.01,16.64,3.99,20.97,12.92c1.31,2.7,1.99,5.63,2,8.65
			C230.23,40.93,230.18,49.98,230.17,59.03z"/>
		<path class="st3" d="M165.86,40.59c-12.52,0-25.03,0.01-37.55-0.01c-1.06,0-2.13-0.05-3.16-0.27c-2.64-0.55-4.26-2.78-4.21-5.63
			c0.05-2.79,1.81-4.94,4.49-5.38c1.04-0.17,2.11-0.21,3.17-0.21c24.81-0.01,49.61-0.01,74.42,0c1.06,0,2.13,0.05,3.17,0.22
			c2.64,0.45,4.43,2.67,4.47,5.43c0.04,2.77-1.67,5.03-4.31,5.57c-1.03,0.21-2.11,0.25-3.16,0.26
			C190.74,40.6,178.3,40.59,165.86,40.59z"/>
		<path class="st4" d="M92.76,34.94c-0.05,4.55-3.78,8.44-8.14,8.5c-4.58,0.06-8.34-3.94-8.26-8.81c0.08-4.6,3.78-8.36,8.22-8.35
			C89.06,26.3,92.81,30.27,92.76,34.94z"/>
		<path class="st5" d="M67.34,34.83c0,4.68-3.74,8.6-8.2,8.61c-4.32,0-8.26-4.18-8.2-8.7c0.06-4.6,3.94-8.49,8.4-8.42
			C63.73,26.39,67.33,30.22,67.34,34.83z"/>
		<path class="st6" d="M33.72,26.32c4.44-0.07,8.32,3.88,8.35,8.48c0.03,4.54-3.9,8.63-8.27,8.61c-4.31-0.01-8.09-3.89-8.22-8.41
			C25.45,30.44,29.24,26.39,33.72,26.32z"/>
	</g>
	<g>
		<g>
			<path class="st7" d="M146.26,99.17c11.33,0,22.65,0,33.98,0c0.55,0,1.11-0.04,1.65,0.03c1.22,0.17,2.02,0.86,2.18,2.12
				c0.17,1.34-0.45,2.27-1.71,2.68c-0.62,0.2-1.32,0.22-1.99,0.22c-22.77,0.01-45.55,0.01-68.32,0c-0.67,0-1.35-0.04-2-0.17
				c-1.33-0.27-2.04-1.19-1.98-2.48c0.06-1.3,0.91-2.12,2.2-2.35c0.53-0.1,1.1-0.05,1.65-0.05
				C123.37,99.17,134.81,99.17,146.26,99.17z"/>
			<path class="st8" d="M84.5,89.37c11.33,0,22.65,0,33.98,0c0.55,0,1.11-0.04,1.65,0.03c1.22,0.17,2.02,0.86,2.18,2.12
				c0.17,1.34-0.45,2.27-1.71,2.68c-0.62,0.2-1.32,0.22-1.99,0.22c-22.77,0.01-45.55,0.01-68.32,0c-0.67,0-1.35-0.04-2-0.17
				c-1.33-0.27-2.04-1.19-1.98-2.48c0.06-1.3,0.91-2.12,2.2-2.35c0.53-0.1,1.1-0.05,1.65-0.05C61.6,89.37,73.05,89.37,84.5,89.37z"
				/>
			<path class="st9" d="M60.79,79.36c11.33,0,22.65,0,33.98,0c0.55,0,1.11-0.04,1.65,0.03c1.22,0.17,2.02,0.86,2.18,2.12
				c0.17,1.34-0.45,2.27-1.71,2.68c-0.62,0.2-1.32,0.22-1.99,0.22c-22.77,0.01-45.55,0.01-68.32,0c-0.67,0-1.35-0.04-2-0.17
				c-1.33-0.27-2.04-1.19-1.98-2.48c0.06-1.3,0.91-2.12,2.2-2.35c0.53-0.1,1.1-0.05,1.65-0.05C37.9,79.36,49.34,79.36,60.79,79.36z"
				/>
			<path class="st5" d="M193.36,79.7c7.16,0,14.31,0,21.47,0.01c0.61,0,1.24-0.02,1.81,0.16c1.13,0.35,1.91,1.08,1.91,2.38
				c0,1.31-0.79,2.03-1.91,2.38c-0.56,0.18-1.21,0.15-1.81,0.15c-14.31,0.01-28.63,0.01-42.94,0.01c-0.37,0-0.74,0.03-1.1-0.01
				c-1.46-0.17-2.38-0.96-2.54-2.44c-0.13-1.31,1.03-2.53,2.55-2.6c1.95-0.09,3.91-0.03,5.87-0.03
				C182.23,79.7,187.8,79.7,193.36,79.7z"/>
			<path class="st4" d="M180.29,94.71c-8.69,0-17.39-0.01-26.08,0.01c-1.01,0-1.96-0.07-2.69-0.89c-1.17-1.32-0.69-3.25,0.97-3.91
				c0.76-0.3,1.56-0.26,2.36-0.26c17.02,0,34.04,0,51.06,0c0.37,0,0.74-0.02,1.1,0.01c1.72,0.14,2.83,1.17,2.8,2.58
				c-0.03,1.42-1.13,2.43-2.89,2.45c-3.92,0.04-7.84,0.02-11.76,0.02C190.21,94.71,185.25,94.71,180.29,94.71z"/>
			<path class="st10" d="M149.37,79.63c1.65,0,3.3-0.03,4.95,0.01c1.45,0.03,2.69,1.13,2.48,2.33c-0.23,1.32-0.83,2.45-2.47,2.45
				c-3.42-0.01-6.84,0.02-10.26-0.02c-1.33-0.02-2.64-1.39-2.51-2.62c0.15-1.44,1.08-2.13,2.5-2.14
				C145.82,79.62,147.59,79.63,149.37,79.63z"/>
			<path class="st11" d="M122.41,79.63c1.65,0,3.3-0.03,4.95,0.01c1.45,0.03,2.69,1.13,2.48,2.33c-0.23,1.32-0.83,2.45-2.47,2.45
				c-3.42-0.01-6.84,0.02-10.26-0.02c-1.33-0.02-2.64-1.39-2.51-2.62c0.15-1.44,1.08-2.13,2.5-2.14
				C118.86,79.62,120.63,79.63,122.41,79.63z"/>
			<path class="st4" d="M88.66,98.89c1.65,0,3.3-0.03,4.95,0.01c1.45,0.03,2.69,1.13,2.48,2.33c-0.23,1.32-0.83,2.45-2.47,2.45
				c-3.42-0.01-6.84,0.02-10.26-0.02c-1.33-0.02-2.64-1.39-2.51-2.62c0.15-1.44,1.08-2.13,2.5-2.14
				C85.12,98.88,86.89,98.89,88.66,98.89z"/>
			<path class="st11" d="M64.07,98.89c1.65,0,3.3-0.03,4.95,0.01c1.45,0.03,2.69,1.13,2.48,2.33c-0.23,1.32-0.83,2.45-2.47,2.45
				c-3.42-0.01-6.84,0.02-10.26-0.02c-1.33-0.02-2.64-1.39-2.51-2.62c0.15-1.44,1.08-2.13,2.5-2.14
				C60.53,98.88,62.3,98.89,64.07,98.89z"/>
			<path class="st12" d="M135.03,94c-1.16,0-2.32,0.05-3.47-0.01c-1.57-0.09-2.57-0.98-2.55-2.54c0.02-1.56,1.02-2.45,2.6-2.49
				c2.19-0.05,4.39-0.05,6.58,0c1.55,0.04,2.53,0.89,2.69,2.45c0.14,1.38-1.09,2.48-2.73,2.6c-0.12,0.01-0.24,0.01-0.37,0.01
				C136.86,94.01,135.95,94.01,135.03,94C135.03,94,135.03,94,135.03,94z"/>
			<path class="st7" d="M35.52,94.49c-1.16,0-2.32,0.05-3.47-0.01c-1.57-0.09-2.57-0.98-2.55-2.54c0.02-1.56,1.02-2.45,2.6-2.49
				c2.19-0.05,4.39-0.05,6.58,0c1.55,0.04,2.53,0.89,2.69,2.45c0.14,1.38-1.09,2.48-2.73,2.6c-0.12,0.01-0.24,0.01-0.37,0.01
				C37.35,94.5,36.44,94.5,35.52,94.49C35.52,94.49,35.52,94.49,35.52,94.49z"/>
		</g>
		<g>
			<path class="st4" d="M132.9,190.31c-8.69,0-17.39-0.01-26.08,0.01c-1.01,0-1.96-0.07-2.69-0.89c-1.17-1.32-0.69-3.25,0.97-3.91
				c0.76-0.3,1.56-0.26,2.36-0.26c17.02,0,34.04,0,51.06,0c0.37,0,0.74-0.02,1.1,0.01c1.72,0.14,2.83,1.17,2.8,2.58
				c-0.03,1.42-1.13,2.43-2.89,2.45c-3.92,0.04-7.84,0.02-11.76,0.02C142.81,190.31,137.86,190.31,132.9,190.31z"/>
			<path class="st11" d="M58.76,200.09c-8.69,0-17.39-0.01-26.08,0.01c-1.01,0-1.96-0.07-2.69-0.89c-1.17-1.32-0.69-3.25,0.97-3.91
				c0.76-0.3,1.56-0.26,2.36-0.26c17.02,0,34.04,0,51.06,0c0.37,0,0.74-0.02,1.1,0.01c1.72,0.14,2.83,1.17,2.8,2.58
				c-0.03,1.42-1.13,2.43-2.89,2.45c-3.92,0.04-7.84,0.02-11.76,0.02C68.68,200.09,63.72,200.09,58.76,200.09z"/>
			<path class="st7" d="M182.29,200.09c-8.69,0-17.39-0.01-26.08,0.01c-1.01,0-1.96-0.07-2.69-0.89c-1.17-1.32-0.69-3.25,0.97-3.91
				c0.76-0.3,1.56-0.26,2.36-0.26c17.02,0,34.04,0,51.06,0c0.37,0,0.74-0.02,1.1,0.01c1.72,0.14,2.83,1.17,2.8,2.58
				c-0.03,1.42-1.13,2.43-2.89,2.45c-3.92,0.04-7.84,0.02-11.76,0.02C192.2,200.09,187.25,200.09,182.29,200.09z"/>
			<path class="st5" d="M122.29,195.32c7.16,0,14.31,0,21.47,0.01c0.61,0,1.24-0.02,1.81,0.16c1.13,0.35,1.91,1.08,1.91,2.38
				c0,1.31-0.79,2.03-1.91,2.38c-0.56,0.18-1.21,0.15-1.81,0.15c-14.31,0.01-28.63,0.01-42.94,0.01c-0.37,0-0.74,0.03-1.1-0.01
				c-1.46-0.17-2.38-0.96-2.54-2.44c-0.13-1.31,1.03-2.53,2.55-2.6c1.95-0.09,3.91-0.03,5.87-0.03
				C111.16,195.32,116.72,195.32,122.29,195.32z"/>
			<path class="st9" d="M64.6,185.64c1.65,0,3.3-0.03,4.95,0.01c1.45,0.03,2.69,1.13,2.48,2.33c-0.23,1.32-0.83,2.45-2.47,2.45
				c-3.42-0.01-6.84,0.02-10.26-0.02c-1.33-0.02-2.64-1.39-2.51-2.62c0.15-1.44,1.08-2.13,2.5-2.14
				C61.05,185.63,62.83,185.64,64.6,185.64z"/>
			<path class="st10" d="M134.43,205.08c15.61,0,31.23,0.01,46.84-0.02c1.19,0,2.16,0.19,2.84,1.26c0.83,1.32,0.4,2.88-1.05,3.5
				c-0.79,0.34-1.64,0.41-2.51,0.41c-30.74-0.01-61.48-0.01-92.22,0c-0.8,0-1.58-0.05-2.34-0.34c-1.19-0.45-1.85-1.35-1.63-2.54
				c0.22-1.16,0.91-2.16,2.3-2.26c0.49-0.03,0.98-0.01,1.47-0.01C103.57,205.08,119,205.08,134.43,205.08z"/>
			<path class="st4" d="M54.67,210.16c-1.16,0-2.32,0.05-3.47-0.01c-1.57-0.09-2.57-0.98-2.55-2.54c0.02-1.56,1.02-2.45,2.6-2.49
				c2.19-0.05,4.39-0.05,6.58,0c1.55,0.04,2.53,0.89,2.69,2.45c0.14,1.38-1.09,2.48-2.73,2.6c-0.12,0.01-0.24,0.01-0.37,0.01
				C56.5,210.17,55.59,210.17,54.67,210.16C54.67,210.17,54.67,210.16,54.67,210.16z"/>
			<path class="st12" d="M196.83,210.16c-1.16,0-2.32,0.05-3.47-0.01c-1.57-0.09-2.57-0.98-2.55-2.54c0.02-1.56,1.02-2.45,2.6-2.49
				c2.19-0.05,4.39-0.05,6.58,0c1.55,0.04,2.53,0.89,2.69,2.45c0.14,1.38-1.09,2.48-2.73,2.6c-0.12,0.01-0.24,0.01-0.37,0.01
				C198.66,210.17,197.74,210.17,196.83,210.16C196.83,210.17,196.83,210.16,196.83,210.16z"/>
			<path class="st9" d="M72.44,205.25c1.65,0,3.3-0.03,4.95,0.01c1.45,0.03,2.69,1.13,2.48,2.33c-0.23,1.32-0.83,2.45-2.47,2.45
				c-3.42-0.01-6.84,0.02-10.26-0.02c-1.33-0.02-2.64-1.39-2.51-2.62c0.15-1.44,1.08-2.13,2.5-2.14
				C68.9,205.24,70.67,205.25,72.44,205.25z"/>
			<path class="st12" d="M177.36,190.06c-1.16,0-2.32,0.05-3.47-0.01c-1.57-0.09-2.57-0.98-2.55-2.54c0.01-1.56,1.02-2.45,2.6-2.49
				c2.19-0.05,4.39-0.05,6.58,0c1.55,0.04,2.53,0.89,2.69,2.45c0.14,1.38-1.09,2.48-2.73,2.6c-0.12,0.01-0.24,0.01-0.37,0.01
				C179.19,190.07,178.27,190.07,177.36,190.06C177.36,190.07,177.36,190.06,177.36,190.06z"/>
		</g>
		<g>
			<path class="st13" d="M51.75,99.04v8.8c-2.02,0-3.79,0.19-5.31,0.56c-1.52,0.37-2.68,1.02-3.47,1.96
				c-0.79,0.93-1.11,2.25-0.95,3.96l1.63,15.6c0.34,3.17,0.04,5.75-0.91,7.75c-0.95,2-2.41,3.54-4.4,4.61
				c-1.99,1.07-4.36,1.82-7.12,2.26c2.92,0.47,5.36,1.22,7.33,2.26c1.97,1.04,3.4,2.55,4.28,4.52c0.88,1.97,1.16,4.59,0.81,7.85
				l-1.63,15.6c-0.16,1.68,0.16,2.99,0.95,3.93c0.79,0.95,1.96,1.61,3.49,1.98c1.54,0.37,3.3,0.56,5.29,0.56v8.8
				c-3.69,0-6.92-0.28-9.69-0.84c-2.76-0.56-5.05-1.47-6.85-2.72c-1.8-1.26-3.08-2.93-3.84-5.01c-0.76-2.08-0.99-4.64-0.68-7.68
				l1.54-14.86c0.25-2.3-0.08-4.14-0.98-5.52c-0.9-1.38-2.37-2.37-4.4-2.98c-2.03-0.61-4.65-0.91-7.85-0.91v-9.97
				c3.17,0,5.77-0.3,7.82-0.91c2.05-0.61,3.52-1.6,4.42-2.98c0.9-1.38,1.23-3.2,0.98-5.47l-1.54-14.86
				c-0.34-3.07-0.13-5.65,0.63-7.73c0.76-2.08,2.04-3.75,3.84-5.01c1.8-1.26,4.09-2.17,6.87-2.72
				C44.82,99.32,48.05,99.04,51.75,99.04z"/>
			<path class="st13" d="M116.57,158.65c0,3.91-1,7.36-3,10.34c-2,2.98-4.88,5.32-8.64,7.01c-3.76,1.69-8.31,2.54-13.64,2.54
				c-5.59,0-10.38-0.83-14.39-2.49s-7.36-3.8-10.06-6.4l6.71-7.5c2.33,2.08,4.94,3.71,7.82,4.89c2.89,1.18,6.13,1.77,9.73,1.77
				c2.3,0,4.37-0.36,6.22-1.07c1.85-0.71,3.31-1.76,4.38-3.14c1.07-1.38,1.61-3.08,1.61-5.1c0-1.77-0.37-3.26-1.12-4.47
				s-2.03-2.3-3.84-3.26c-1.82-0.96-4.34-1.92-7.57-2.89c-4.75-1.46-8.66-3.07-11.74-4.82c-3.07-1.75-5.36-3.83-6.85-6.24
				c-1.49-2.41-2.24-5.25-2.24-8.55c0-3.69,1.02-6.88,3.07-9.57c2.05-2.68,4.82-4.75,8.31-6.19c3.49-1.44,7.4-2.17,11.71-2.17
				c4.78,0,8.99,0.69,12.62,2.07c3.63,1.38,6.83,3.35,9.59,5.89l-6.38,7.22c-2.2-1.89-4.59-3.29-7.15-4.19
				c-2.56-0.9-5.16-1.35-7.8-1.35c-2.08,0-3.94,0.28-5.56,0.84c-1.63,0.56-2.91,1.38-3.84,2.47c-0.93,1.09-1.4,2.47-1.4,4.14
				c0,1.52,0.43,2.82,1.28,3.89c0.85,1.07,2.32,2.07,4.4,2.98c2.08,0.92,4.94,1.95,8.57,3.1c3.82,1.15,7.16,2.53,10.04,4.14
				c2.87,1.61,5.11,3.7,6.73,6.26C115.76,151.36,116.57,154.65,116.57,158.65z"/>
			<path class="st13" d="M170.78,112.73l3.63,64.4h-11.36l-1.21-29.66c-0.09-2.48-0.15-4.79-0.16-6.92
				c-0.02-2.13-0.01-4.14,0.02-6.05c0.03-1.91,0.09-3.75,0.16-5.52c0.08-1.77,0.18-3.51,0.3-5.22l-8.52,42.19H143.3l-9.13-42.19
				c0.12,1.65,0.23,3.37,0.33,5.17c0.09,1.8,0.16,3.68,0.21,5.63c0.05,1.96,0.08,4.02,0.09,6.19c0.02,2.17-0.02,4.44-0.12,6.8
				l-0.88,29.57h-11.18l3.63-64.4h14.16l8.29,42.52l7.92-42.52H170.78z"/>
			<path class="st13" d="M189.4,99.04c3.69,0,6.92,0.28,9.69,0.84c2.76,0.56,5.04,1.47,6.85,2.72c1.8,1.26,3.09,2.93,3.87,5.01
				c0.78,2.08,0.99,4.64,0.65,7.68l-1.54,14.9c-0.25,2.27,0.11,4.09,1.07,5.47c0.96,1.38,2.46,2.38,4.49,2.98
				c2.03,0.61,4.59,0.91,7.66,0.91v9.97c-3.04,0-5.59,0.3-7.64,0.91c-2.05,0.61-3.56,1.6-4.52,2.98c-0.96,1.38-1.32,3.22-1.07,5.52
				l1.54,14.81c0.34,3.07,0.13,5.65-0.63,7.73c-0.76,2.08-2.04,3.75-3.84,5.01c-1.8,1.26-4.09,2.17-6.87,2.72
				c-2.78,0.56-6.02,0.84-9.71,0.84v-8.8c2.02,0,3.79-0.19,5.31-0.56c1.52-0.37,2.68-1.03,3.47-1.98c0.79-0.95,1.11-2.26,0.95-3.93
				l-1.63-15.6c-0.34-3.26-0.04-5.88,0.91-7.85c0.95-1.97,2.44-3.48,4.49-4.54c2.05-1.06,4.53-1.78,7.45-2.19
				c-3.01-0.47-5.54-1.23-7.59-2.3c-2.05-1.07-3.52-2.6-4.42-4.59c-0.9-1.99-1.18-4.58-0.84-7.78l1.63-15.6
				c0.16-1.71-0.16-3.03-0.95-3.96c-0.79-0.93-1.95-1.58-3.47-1.96c-1.52-0.37-3.29-0.56-5.31-0.56V99.04z"/>
		</g>
	</g>
</g>
<path class="st9" d="M86.95,185.28c1.65,0,3.3-0.03,4.95,0.01c1.45,0.03,2.69,1.13,2.48,2.33c-0.23,1.32-0.83,2.45-2.47,2.45
	c-3.42-0.01-6.84,0.02-10.26-0.02c-1.33-0.02-2.64-1.39-2.51-2.62c0.15-1.44,1.08-2.13,2.5-2.14
	C83.41,185.27,85.18,185.28,86.95,185.28z"/>
</svg>
