<?xml version="1.0" encoding="utf-8"?>
<!-- Generator: Adobe Illustrator 25.3.0, SVG Export Plug-In . SVG Version: 6.00 Build 0)  -->
<svg version="1.1" id="Capa_1" xmlns="http://www.w3.org/2000/svg" xmlns:xlink="http://www.w3.org/1999/xlink" x="0px" y="0px"
	 viewBox="0 0 24 24" style="enable-background:new 0 0 24 24;" xml:space="preserve">
<style type="text/css">
	.st0{fill:none;stroke:#B980F0;stroke-width:2;stroke-linecap:round;stroke-linejoin:round;}
</style>
<g>
	<path class="st0" d="M2,12c0,5,4.5,9,10,9s10-4,10-9s-4.5-9-10-9S2,7,2,12"/>
	<path class="st0" d="M5.5,15l0.4-2l0.6-3h1.3c0.6,0,1,0.4,1,1c0,0.1,0,0.1,0,0.2l-0.2,1c-0.1,0.5-0.5,0.8-1,0.8H6"/>
	<path class="st0" d="M15.5,15l0.4-2l0.6-3h1.3c0.6,0,1,0.4,1,1c0,0.1,0,0.1,0,0.2l-0.2,1c-0.1,0.5-0.5,0.8-1,0.8H16"/>
	<path class="st0" d="M12,7.5L11,13"/>
	<path class="st0" d="M11.6,10H14l-0.5,3"/>
</g>
</svg>
